<svg version="1.2" xmlns="http://www.w3.org/2000/svg" viewBox="0 0 800 533" width="800" height="533">
	<title>20944140-ai</title>
	<defs>
		<linearGradient id="g1" x1="75.8" y1="39" x2="762.8" y2="39" gradientUnits="userSpaceOnUse">
			<stop offset="0" stop-color="#dae3fe"/>
			<stop offset="1" stop-color="#e9effd"/>
		</linearGradient>
		<linearGradient id="g2" x1="484.1" y1="10.2" x2="428.2" y2="352.1" gradientUnits="userSpaceOnUse">
			<stop offset="0" stop-color="#09005d"/>
			<stop offset="1" stop-color="#1a0f91"/>
		</linearGradient>
		<linearGradient id="g3" x1="132.2" y1="487.8" x2="149.1" y2="137.9" gradientUnits="userSpaceOnUse">
			<stop offset="0" stop-color="#09005d"/>
			<stop offset="1" stop-color="#1a0f91"/>
		</linearGradient>
		<linearGradient id="g4" x1="398.3" y1="296.4" x2="374.9" y2="199.2" gradientUnits="userSpaceOnUse">
			<stop offset="0" stop-color="#fe7062"/>
			<stop offset="1" stop-color="#ff928e"/>
		</linearGradient>
		<linearGradient id="g5" x1="486.8" y1="590" x2="265.4" y2="376.9" gradientUnits="userSpaceOnUse">
			<stop offset="0" stop-color="#e1473d"/>
			<stop offset="1" stop-color="#e9605a"/>
		</linearGradient>
		<linearGradient id="g6" x1="528.9" y1="100.3" x2="397.7" y2="537.5" gradientUnits="userSpaceOnUse">
			<stop offset="0" stop-color="#4042e2"/>
			<stop offset="1" stop-color="#4f52ff"/>
		</linearGradient>
		<linearGradient id="g7" x1="414.8" y1="236" x2="386.1" y2="365.9" gradientUnits="userSpaceOnUse">
			<stop offset="0" stop-color="#fe7062"/>
			<stop offset="1" stop-color="#ff928e"/>
		</linearGradient>
		<linearGradient id="g8" x1="495" y1="122" x2="367.8" y2="546.1" gradientUnits="userSpaceOnUse">
			<stop offset="0" stop-color="#4042e2"/>
			<stop offset="1" stop-color="#4f52ff"/>
		</linearGradient>
		<linearGradient id="g9" x1="506.3" y1="119.3" x2="379" y2="543.5" gradientUnits="userSpaceOnUse">
			<stop offset="0" stop-color="#4042e2"/>
			<stop offset="1" stop-color="#4f52ff"/>
		</linearGradient>
		<linearGradient id="g10" x1="517.5" y1="116.7" x2="390.3" y2="540.8" gradientUnits="userSpaceOnUse">
			<stop offset="0" stop-color="#4042e2"/>
			<stop offset="1" stop-color="#4f52ff"/>
		</linearGradient>
		<linearGradient id="g11" x1="456.6" y1="108.3" x2="329.4" y2="532.4" gradientUnits="userSpaceOnUse">
			<stop offset="0" stop-color="#4042e2"/>
			<stop offset="1" stop-color="#4f52ff"/>
		</linearGradient>
		<linearGradient id="g12" x1="467.9" y1="105.6" x2="340.6" y2="529.8" gradientUnits="userSpaceOnUse">
			<stop offset="0" stop-color="#4042e2"/>
			<stop offset="1" stop-color="#4f52ff"/>
		</linearGradient>
		<linearGradient id="g13" x1="478.8" y1="102.9" x2="351.6" y2="527" gradientUnits="userSpaceOnUse">
			<stop offset="0" stop-color="#4042e2"/>
			<stop offset="1" stop-color="#4f52ff"/>
		</linearGradient>
		<linearGradient id="g14" x1="417.9" y1="94.4" x2="290.6" y2="518.6" gradientUnits="userSpaceOnUse">
			<stop offset="0" stop-color="#4042e2"/>
			<stop offset="1" stop-color="#4f52ff"/>
		</linearGradient>
		<linearGradient id="g15" x1="429.1" y1="91.8" x2="301.9" y2="515.9" gradientUnits="userSpaceOnUse">
			<stop offset="0" stop-color="#4042e2"/>
			<stop offset="1" stop-color="#4f52ff"/>
		</linearGradient>
		<linearGradient id="g16" x1="440.4" y1="89.2" x2="313.2" y2="513.3" gradientUnits="userSpaceOnUse">
			<stop offset="0" stop-color="#4042e2"/>
			<stop offset="1" stop-color="#4f52ff"/>
		</linearGradient>
		<linearGradient id="g17" x1="375.6" y1="79.4" x2="248.4" y2="503.5" gradientUnits="userSpaceOnUse">
			<stop offset="0" stop-color="#4042e2"/>
			<stop offset="1" stop-color="#4f52ff"/>
		</linearGradient>
		<linearGradient id="g18" x1="386.9" y1="76.7" x2="259.7" y2="500.8" gradientUnits="userSpaceOnUse">
			<stop offset="0" stop-color="#4042e2"/>
			<stop offset="1" stop-color="#4f52ff"/>
		</linearGradient>
		<linearGradient id="g19" x1="398.2" y1="74.1" x2="270.9" y2="498.2" gradientUnits="userSpaceOnUse">
			<stop offset="0" stop-color="#4042e2"/>
			<stop offset="1" stop-color="#4f52ff"/>
		</linearGradient>
		<linearGradient id="g20" x1="353.5" y1="88.8" x2="232.9" y2="491" gradientUnits="userSpaceOnUse">
			<stop offset="0" stop-color="#4042e2"/>
			<stop offset="1" stop-color="#4f52ff"/>
		</linearGradient>
		<linearGradient id="g21" x1="396.6" y1="103.3" x2="276" y2="505.5" gradientUnits="userSpaceOnUse">
			<stop offset="0" stop-color="#4042e2"/>
			<stop offset="1" stop-color="#4f52ff"/>
		</linearGradient>
		<linearGradient id="g22" x1="436.3" y1="116.6" x2="315.6" y2="518.9" gradientUnits="userSpaceOnUse">
			<stop offset="0" stop-color="#4042e2"/>
			<stop offset="1" stop-color="#4f52ff"/>
		</linearGradient>
		<linearGradient id="g23" x1="479.4" y1="131.2" x2="358.7" y2="533.4" gradientUnits="userSpaceOnUse">
			<stop offset="0" stop-color="#4042e2"/>
			<stop offset="1" stop-color="#4f52ff"/>
		</linearGradient>
		<linearGradient id="g24" x1="502.9" y1="335.4" x2="584.2" y2="327.4" gradientUnits="userSpaceOnUse">
			<stop offset="0" stop-color="#fe7062"/>
			<stop offset="1" stop-color="#ff928e"/>
		</linearGradient>
		<linearGradient id="g25" x1="495.7" y1="334.1" x2="583.6" y2="325.6" gradientUnits="userSpaceOnUse">
			<stop offset="0" stop-color="#fe7062"/>
			<stop offset="1" stop-color="#ff928e"/>
		</linearGradient>
		<linearGradient id="g26" x1="588.4" y1="146.9" x2="497.6" y2="173" gradientUnits="userSpaceOnUse">
			<stop offset="0" stop-color="#fe7062"/>
			<stop offset="1" stop-color="#ff928e"/>
		</linearGradient>
		<linearGradient id="g27" x1="613.9" y1="136.3" x2="502.4" y2="168.4" gradientUnits="userSpaceOnUse">
			<stop offset="0" stop-color="#fe7062"/>
			<stop offset="1" stop-color="#ff928e"/>
		</linearGradient>
		<linearGradient id="g28" x1="141.8" y1="288.4" x2="49" y2="497.2" gradientUnits="userSpaceOnUse">
			<stop offset="0" stop-color="#09005d"/>
			<stop offset="1" stop-color="#1a0f91"/>
		</linearGradient>
		<linearGradient id="g29" x1="863" y1="505.4" x2="770.5" y2="503.1" gradientUnits="userSpaceOnUse">
			<stop offset="0" stop-color="#4042e2"/>
			<stop offset="1" stop-color="#4f52ff"/>
		</linearGradient>
		<linearGradient id="g30" x1="390.8" y1="523.2" x2="369.4" y2="318.7" gradientUnits="userSpaceOnUse">
			<stop offset="0" stop-color="#ff928e"/>
			<stop offset="1" stop-color="#feb3b1"/>
		</linearGradient>
		<linearGradient id="g31" x1="831.7" y1="497.7" x2="743.4" y2="495.5" gradientUnits="userSpaceOnUse">
			<stop offset="0" stop-color="#4042e2"/>
			<stop offset="1" stop-color="#4f52ff"/>
		</linearGradient>
		<linearGradient id="g32" x1="264.7" y1="542.8" x2="241.9" y2="324.5" gradientUnits="userSpaceOnUse">
			<stop offset="0" stop-color="#ff928e"/>
			<stop offset="1" stop-color="#feb3b1"/>
		</linearGradient>
		<linearGradient id="g33" x1="172.8" y1="335.8" x2="238.6" y2="430.3" gradientUnits="userSpaceOnUse">
			<stop offset="0" stop-color="#4042e2"/>
			<stop offset="1" stop-color="#4f52ff"/>
		</linearGradient>
		<linearGradient id="g34" x1="299.3" y1="369.6" x2="251" y2="469" gradientUnits="userSpaceOnUse">
			<stop offset="0" stop-color="#09005d"/>
			<stop offset="1" stop-color="#1a0f91"/>
		</linearGradient>
		<linearGradient id="g35" x1="251.5" y1="307.7" x2="230.6" y2="352.2" gradientUnits="userSpaceOnUse">
			<stop offset="0" stop-color="#ff928e"/>
			<stop offset="1" stop-color="#feb3b1"/>
		</linearGradient>
		<linearGradient id="g36" x1="259.9" y1="283.3" x2="226" y2="321.8" gradientUnits="userSpaceOnUse">
			<stop offset="0" stop-color="#ff928e"/>
			<stop offset="1" stop-color="#feb3b1"/>
		</linearGradient>
		<linearGradient id="g37" x1="179.1" y1="344.3" x2="90.4" y2="543.9" gradientUnits="userSpaceOnUse">
			<stop offset="0" stop-color="#09005d"/>
			<stop offset="1" stop-color="#1a0f91"/>
		</linearGradient>
		<linearGradient id="g38" x1="319" y1="252.8" x2="230.5" y2="392.5" gradientUnits="userSpaceOnUse">
			<stop offset="0" stop-color="#4042e2"/>
			<stop offset="1" stop-color="#4f52ff"/>
		</linearGradient>
		<linearGradient id="g39" x1="240.1" y1="351.2" x2="252.5" y2="345" gradientUnits="userSpaceOnUse">
			<stop offset="0" stop-color="#ff928e"/>
			<stop offset="1" stop-color="#feb3b1"/>
		</linearGradient>
		<linearGradient id="g40" x1="722.4" y1="400.4" x2="723.9" y2="476.6" gradientUnits="userSpaceOnUse">
			<stop offset="0" stop-color="#09005d"/>
			<stop offset="1" stop-color="#1a0f91"/>
		</linearGradient>
		<linearGradient id="g41" x1="735.2" y1="466.9" x2="728.9" y2="466.9" gradientUnits="userSpaceOnUse">
			<stop offset="0" stop-color="#ff928e"/>
			<stop offset="1" stop-color="#feb3b1"/>
		</linearGradient>
		<linearGradient id="g42" x1="686.7" y1="399.7" x2="688.2" y2="477.2" gradientUnits="userSpaceOnUse">
			<stop offset="0" stop-color="#09005d"/>
			<stop offset="1" stop-color="#1a0f91"/>
		</linearGradient>
		<linearGradient id="g43" x1="703.1" y1="462" x2="696.8" y2="462" gradientUnits="userSpaceOnUse">
			<stop offset="0" stop-color="#ff928e"/>
			<stop offset="1" stop-color="#feb3b1"/>
		</linearGradient>
		<linearGradient id="g44" x1="884.1" y1="357" x2="873.7" y2="464.7" gradientUnits="userSpaceOnUse">
			<stop offset="0" stop-color="#09005d"/>
			<stop offset="1" stop-color="#1a0f91"/>
		</linearGradient>
		<linearGradient id="g45" x1="720.7" y1="374.6" x2="729.5" y2="374.6" gradientUnits="userSpaceOnUse">
			<stop offset="0" stop-color="#4042e2"/>
			<stop offset="1" stop-color="#4f52ff"/>
		</linearGradient>
		<linearGradient id="g46" x1="683.4" y1="345.3" x2="663.3" y2="600.6" gradientUnits="userSpaceOnUse">
			<stop offset="0" stop-color="#4042e2"/>
			<stop offset="1" stop-color="#4f52ff"/>
		</linearGradient>
		<linearGradient id="g47" x1="660.9" y1="261.8" x2="637.5" y2="261.8" gradientUnits="userSpaceOnUse">
			<stop offset="0" stop-color="#ff928e"/>
			<stop offset="1" stop-color="#feb3b1"/>
		</linearGradient>
		<linearGradient id="g48" x1="626.4" y1="344.1" x2="863.8" y2="531.6" gradientUnits="userSpaceOnUse">
			<stop offset="0" stop-color="#4042e2"/>
			<stop offset="1" stop-color="#4f52ff"/>
		</linearGradient>
		<linearGradient id="g49" x1="583.6" y1="287.5" x2="648.4" y2="368.2" gradientUnits="userSpaceOnUse">
			<stop offset="0" stop-color="#ff928e"/>
			<stop offset="1" stop-color="#feb3b1"/>
		</linearGradient>
		<linearGradient id="g50" x1="588.4" y1="294.7" x2="648.8" y2="369.8" gradientUnits="userSpaceOnUse">
			<stop offset="0" stop-color="#ff928e"/>
			<stop offset="1" stop-color="#feb3b1"/>
		</linearGradient>
		<linearGradient id="g51" x1="639.5" y1="238" x2="714" y2="374.7" gradientUnits="userSpaceOnUse">
			<stop offset="0" stop-color="#ff928e"/>
			<stop offset="1" stop-color="#feb3b1"/>
		</linearGradient>
		<linearGradient id="g52" x1="650.2" y1="248.7" x2="698.8" y2="265.2" gradientUnits="userSpaceOnUse">
			<stop offset="0" stop-color="#ff928e"/>
			<stop offset="1" stop-color="#feb3b1"/>
		</linearGradient>
		<linearGradient id="g53" x1="699.6" y1="268.7" x2="678.4" y2="253.7" gradientUnits="userSpaceOnUse">
			<stop offset="0" stop-color="#09005d"/>
			<stop offset="1" stop-color="#1a0f91"/>
		</linearGradient>
		<linearGradient id="g54" x1="701.1" y1="311.7" x2="695.8" y2="278.4" gradientUnits="userSpaceOnUse">
			<stop offset="0" stop-color="#ff928e"/>
			<stop offset="1" stop-color="#feb3b1"/>
		</linearGradient>
		<linearGradient id="g55" x1="593.6" y1="197.6" x2="597.1" y2="386.8" gradientUnits="userSpaceOnUse">
			<stop offset="0" stop-color="#4042e2"/>
			<stop offset="1" stop-color="#4f52ff"/>
		</linearGradient>
		<linearGradient id="g56" x1="635.4" y1="204.8" x2="603.4" y2="289.7" gradientUnits="userSpaceOnUse">
			<stop offset="0" stop-color="#4042e2"/>
			<stop offset="1" stop-color="#4f52ff"/>
		</linearGradient>
		<linearGradient id="g57" x1="573.5" y1="264.1" x2="514.2" y2="289.1" gradientUnits="userSpaceOnUse">
			<stop offset="0" stop-color="#fe7062"/>
			<stop offset="1" stop-color="#ff928e"/>
		</linearGradient>
		<linearGradient id="g58" x1="510.3" y1="210.9" x2="537.4" y2="179.5" gradientUnits="userSpaceOnUse">
			<stop offset="0" stop-color="#e1473d"/>
			<stop offset="1" stop-color="#e9605a"/>
		</linearGradient>
		<linearGradient id="g59" x1="539.4" y1="178.2" x2="567.1" y2="178.2" gradientUnits="userSpaceOnUse">
			<stop offset="0" stop-color="#fe7062"/>
			<stop offset="1" stop-color="#ff928e"/>
		</linearGradient>
		<linearGradient id="g60" x1="579.7" y1="183.4" x2="540.4" y2="249.3" gradientUnits="userSpaceOnUse">
			<stop offset="0" stop-color="#fe7062"/>
			<stop offset="1" stop-color="#ff928e"/>
		</linearGradient>
		<linearGradient id="g61" x1="519.3" y1="207.9" x2="566.4" y2="153.2" gradientUnits="userSpaceOnUse">
			<stop offset="0" stop-color="#e1473d"/>
			<stop offset="1" stop-color="#e9605a"/>
		</linearGradient>
		<linearGradient id="g62" x1="647.1" y1="155.4" x2="510.1" y2="362.3" gradientUnits="userSpaceOnUse">
			<stop offset="0" stop-color="#fe7062"/>
			<stop offset="1" stop-color="#ff928e"/>
		</linearGradient>
		<linearGradient id="g63" x1="640" y1="160" x2="571.6" y2="274.8" gradientUnits="userSpaceOnUse">
			<stop offset="0" stop-color="#fe7062"/>
			<stop offset="1" stop-color="#ff928e"/>
		</linearGradient>
		<linearGradient id="g64" x1="534.3" y1="264.5" x2="582.8" y2="208.3" gradientUnits="userSpaceOnUse">
			<stop offset="0" stop-color="#e1473d"/>
			<stop offset="1" stop-color="#e9605a"/>
		</linearGradient>
		<linearGradient id="g65" x1="665.8" y1="210.5" x2="524.9" y2="423.3" gradientUnits="userSpaceOnUse">
			<stop offset="0" stop-color="#fe7062"/>
			<stop offset="1" stop-color="#ff928e"/>
		</linearGradient>
		<linearGradient id="g66" x1="658.5" y1="215.2" x2="588.2" y2="333.3" gradientUnits="userSpaceOnUse">
			<stop offset="0" stop-color="#fe7062"/>
			<stop offset="1" stop-color="#ff928e"/>
		</linearGradient>
		<linearGradient id="g67" x1="587.8" y1="220.6" x2="623.3" y2="179.3" gradientUnits="userSpaceOnUse">
			<stop offset="0" stop-color="#e1473d"/>
			<stop offset="1" stop-color="#e9605a"/>
		</linearGradient>
		<linearGradient id="g68" x1="684.1" y1="180.9" x2="580.9" y2="336.9" gradientUnits="userSpaceOnUse">
			<stop offset="0" stop-color="#fe7062"/>
			<stop offset="1" stop-color="#ff928e"/>
		</linearGradient>
		<linearGradient id="g69" x1="678.8" y1="184.4" x2="627.2" y2="271" gradientUnits="userSpaceOnUse">
			<stop offset="0" stop-color="#fe7062"/>
			<stop offset="1" stop-color="#ff928e"/>
		</linearGradient>
		<linearGradient id="g70" x1="-282.9" y1="1932.8" x2="-483.4" y2="2283.9" gradientUnits="userSpaceOnUse">
			<stop offset="0" stop-color="#09005d"/>
			<stop offset="1" stop-color="#1a0f91"/>
		</linearGradient>
		<linearGradient id="g71" x1="623.5" y1="349.9" x2="700.8" y2="470.1" gradientUnits="userSpaceOnUse">
			<stop offset="0" stop-color="#fe7062"/>
			<stop offset="1" stop-color="#ff928e"/>
		</linearGradient>
		<linearGradient id="g72" x1="1112.5" y1="86.9" x2="845.2" y2="354.2" gradientUnits="userSpaceOnUse">
			<stop offset="0" stop-color="#fe7062"/>
			<stop offset="1" stop-color="#ff928e"/>
		</linearGradient>
		<linearGradient id="g73" x1="-289.4" y1="1928.3" x2="-489.9" y2="2279.5" gradientUnits="userSpaceOnUse">
			<stop offset="0" stop-color="#09005d"/>
			<stop offset="1" stop-color="#1a0f91"/>
		</linearGradient>
	</defs>
	<style>
		.s0 { fill: #ffffff } 
		.s1 { fill: url(#g1) } 
		.s2 { fill: #91b3fa } 
		.s3 { fill: #dce5fe } 
		.s4 { fill: #bdd0fb } 
		.s5 { fill: url(#g2) } 
		.s6 { fill: #7d97f4 } 
		.s7 { fill: url(#g3) } 
		.s8 { fill: url(#g4) } 
		.s9 { opacity: .2;fill: #ffffff } 
		.s10 { fill: url(#g5) } 
		.s11 { fill: url(#g6) } 
		.s12 { fill: url(#g7) } 
		.s13 { fill: url(#g8) } 
		.s14 { fill: url(#g9) } 
		.s15 { fill: url(#g10) } 
		.s16 { fill: url(#g11) } 
		.s17 { fill: url(#g12) } 
		.s18 { fill: url(#g13) } 
		.s19 { fill: url(#g14) } 
		.s20 { fill: url(#g15) } 
		.s21 { fill: url(#g16) } 
		.s22 { fill: url(#g17) } 
		.s23 { fill: url(#g18) } 
		.s24 { fill: url(#g19) } 
		.s25 { fill: url(#g20) } 
		.s26 { fill: url(#g21) } 
		.s27 { fill: url(#g22) } 
		.s28 { fill: url(#g23) } 
		.s29 { fill: url(#g24) } 
		.s30 { fill: url(#g25) } 
		.s31 { fill: url(#g26) } 
		.s32 { fill: url(#g27) } 
		.s33 { fill: url(#g28) } 
		.s34 { fill: url(#g29) } 
		.s35 { fill: url(#g30) } 
		.s36 { fill: url(#g31) } 
		.s37 { fill: url(#g32) } 
		.s38 { fill: url(#g33) } 
		.s39 { fill: url(#g34) } 
		.s40 { fill: url(#g35) } 
		.s41 { fill: url(#g36) } 
		.s42 { fill: url(#g37) } 
		.s43 { fill: url(#g38) } 
		.s44 { fill: url(#g39) } 
		.s45 { fill: url(#g40) } 
		.s46 { fill: url(#g41) } 
		.s47 { fill: url(#g42) } 
		.s48 { fill: url(#g43) } 
		.s49 { fill: url(#g44) } 
		.s50 { fill: url(#g45) } 
		.s51 { fill: url(#g46) } 
		.s52 { fill: url(#g47) } 
		.s53 { fill: url(#g48) } 
		.s54 { fill: url(#g49) } 
		.s55 { fill: url(#g50) } 
		.s56 { fill: url(#g51) } 
		.s57 { fill: url(#g52) } 
		.s58 { fill: url(#g53) } 
		.s59 { fill: url(#g54) } 
		.s60 { fill: url(#g55) } 
		.s61 { fill: url(#g56) } 
		.s62 { fill: url(#g57) } 
		.s63 { opacity: .8;fill: #ffffff } 
		.s64 { fill: url(#g58) } 
		.s65 { fill: url(#g59) } 
		.s66 { opacity: .6;fill: #ffffff } 
		.s67 { fill: url(#g60) } 
		.s68 { fill: url(#g61) } 
		.s69 { fill: url(#g62) } 
		.s70 { fill: url(#g63) } 
		.s71 { fill: url(#g64) } 
		.s72 { fill: url(#g65) } 
		.s73 { fill: url(#g66) } 
		.s74 { fill: url(#g67) } 
		.s75 { fill: url(#g68) } 
		.s76 { fill: url(#g69) } 
		.s77 { fill: url(#g70) } 
		.s78 { fill: url(#g71) } 
		.s79 { fill: url(#g72) } 
		.s80 { fill: url(#g73) } 
	</style>
	<g id="_Artboards_">
	</g>
	<g id="Background">
		<path id="&lt;Path&gt;" class="s0" d="m0 0h800v533h-800z"/>
	</g>
	<g id="Illustration">
		<g id="&lt;Group&gt;">
			<path id="&lt;Path&gt;" class="s1" d="m693.5 168c-4.9-6.4-8.7-13.6-10.6-22.2-2.5-11.8-0.2-24.2-1.7-36.2-4-29.9-31.1-50.5-58.2-61.3-39.1-15.6-87.3-1.8-122.1 20-22.8 14.1-42.6 34.6-69.1 39.1-29.9 5.2-59.8 5-89.1-3.9-49.2-14.8-91.2-50.2-141.2-61.8-34.5-8-75.5 2.2-100.6 29.3-16.1 17.4-25.3 41.4-25.1 65.5 0.1 16.7 4.5 32.9 8.8 48.9 5.2 19.1 10.4 33.7 19.6 50.4 8.9 15.8 12.6 35.1 7 52.7-5.1 16.5-18.6 28.5-26.6 43.6-22.7 42.5 2.2 130.8 44.3 144.6 26.5 8.7 243-4.1 275 2.6 32 6.7 222.6-6.5 254.9-16.3 33.9-10.4 71.7-80.3 92.3-110.9 23.8-35.5 8-109.4-18-143.3-11.3-14.7-28.3-25.8-39.6-40.8z"/>
			<g id="&lt;Group&gt;">
				<g id="&lt;Group&gt;" style="opacity: .9">
					<path id="&lt;Path&gt;" class="s2" d="m127.5 62.2c-5.1 46-26.4 313.4 166.6 339.4 0 0 49.6-179.5-161.6-343-1.9-1.4-4.6 0.6-5 3.6z"/>
					<path id="&lt;Path&gt;" class="s3" d="m141.2 99.7c3.3 12.7 6.8 25.3 10.5 38q5.4 18.9 11.3 37.7c7.8 25.1 16.1 50 25.1 74.7 4.5 12.4 9.2 24.6 14.1 36.8 5 12.2 10.1 24.3 15.6 36.2 5.5 11.9 11.3 23.7 17.6 35.2 6.3 11.4 16.4 21.2 24.2 31.6 0.4 0.6-3 2.9-3.5 3.3-0.6 0.5-1.4 0.4-1.8-0.2-7.9-10.7-14.7-22-21-33.6-6.3-11.6-12.1-23.4-17.5-35.4-5.4-12-10.6-24.1-15.4-36.3-4.9-12.3-9.5-24.6-14-37-8.9-24.7-17.1-49.7-24.8-74.9q-5.8-18.8-11.1-37.8c-3.6-12.6-7.1-25.3-10.3-38.1-0.1-0.3 0.1-0.6 0.3-0.6 0.3-0.1 0.6 0.1 0.7 0.4z"/>
				</g>
				<g id="&lt;Group&gt;">
					<path id="&lt;Path&gt;" class="s4" d="m89.1 208.6c-0.3-2.5 2.4-3.9 3.7-1.7 12.4 20.5 46.4 73.3 79.9 94.6 54.5 34.7 111.4 106.2 100.2 160 0 0-148.5 28.8-183.8-252.9z"/>
					<path id="&lt;Path&gt;" class="s3" d="m103.8 239.3c0.2 0.6 0.5 1.2 0.8 1.8l0.9 1.8 1.8 3.6 3.8 7.1q3.7 7.1 7.6 14.1 7.8 14 15.9 27.6c11 18.2 22.3 36 34.4 53.1 6 8.5 12.1 17 18.5 25.1 6.4 8.2 12.9 16.2 19.7 23.9 13.5 15.4 27.9 29.6 43.6 41.8 0.2 0.1 0.2 0.5 0.1 0.7-0.1 0.3-0.4 0.3-0.6 0.2-8.1-5.7-15.8-12.1-23.3-18.9-7.4-6.8-14.5-14.2-21.4-21.7-13.8-15.3-26.6-31.8-38.7-49-6-8.6-11.8-17.5-17.5-26.4-5.7-8.9-11.3-18-16.6-27.2-5.3-9.3-10.5-18.6-15.5-28.1q-3.8-7.1-7.4-14.4-1.8-3.6-3.6-7.2l-1.7-3.7-0.8-1.8c-0.3-0.7-0.6-1.3-0.9-2-0.1-0.3 0-0.6 0.2-0.7 0.3-0.1 0.5 0 0.6 0.2z"/>
				</g>
			</g>
			<g id="&lt;Group&gt;">
				<path id="&lt;Path&gt;" class="s2" d="m620.9 45.7c2.7 44.1 8.2 301.6-232.6 350.2 0 0-47.3-168.6 226.8-353.1 2.4-1.6 5.6 0 5.8 2.9z"/>
				<path id="&lt;Path&gt;" class="s3" d="m602.8 91.2c-6.4 12.6-12.9 25.1-19.6 37.6q-10 18.7-20.4 37.1c-14 24.6-28.5 48.9-43.7 72.7-15.2 23.8-31.2 47.2-48.4 69.6q-12.8 16.9-26.9 32.9c-9.4 10.6-19.2 20.8-29.8 30.2-0.7 0.6-1.6 0.5-2.2-0.1-0.6-0.6-0.5-1.6 0.1-2.1 10.6-9.3 20.4-19.4 29.8-29.9q14.1-15.8 27-32.5c17.2-22.4 33.3-45.6 48.6-69.3 15.3-23.7 29.9-47.9 44-72.4q10.5-18.3 20.6-36.9c6.7-12.4 13.3-24.9 19.7-37.5 0.2-0.3 0.6-0.5 0.9-0.3 0.3 0.2 0.4 0.5 0.3 0.9z"/>
			</g>
			<g id="&lt;Group&gt;">
				<path id="&lt;Path&gt;" class="s4" d="m424.5 480.1c0 0 7.7-48.3 63.2-90.5 51.4-39.2 177.1-129 210.7-183.7 1.5-2.4 5.2-1.1 4.8 1.7-3.8 30.2-19.4 105.2-82 173.3-80.7 87.8-196.7 99.2-196.7 99.2z"/>
				<path id="&lt;Path&gt;" class="s3" d="m673.3 257.5c-1.8 6.6-4.4 12.8-7.3 18.9q-0.5 1.2-1 2.3l-1.2 2.2-2.3 4.5-2.5 4.4c-0.9 1.5-1.7 3-2.6 4.4-7.2 11.5-15.2 22.4-24.2 32.5-2.1 2.6-4.6 5-6.9 7.5l-3.5 3.6c-0.6 0.6-1.1 1.3-1.7 1.9l-1.9 1.7-7.3 7c-1.2 1.2-2.5 2.3-3.8 3.4l-3.8 3.3-3.9 3.3-1.9 1.7-2 1.5-8 6.2c-1.4 1.1-2.7 2.1-4 3.1l-4.1 3-8.2 5.9-8.3 5.9c-2.7 1.9-5.5 3.9-8.2 5.8q-8.4 5.7-16.8 11.4c-5.6 3.7-11.2 7.4-16.8 11.1l-17 11c-11.3 7.3-22.7 14.6-33.7 22.2-2.8 1.9-5.5 3.9-8.2 5.8-1.4 1-2.7 2-4.1 3.1-1.3 1-2.6 2-3.9 3.1-2.6 2.1-5.2 4.2-7.6 6.6l-1.8 1.7c-0.3 0.3-0.6 0.6-0.9 0.9l-0.9 0.9-3.4 3.7c-0.2 0.1-0.4 0.2-0.5 0-0.2-0.1-0.2-0.3-0.1-0.5 4.4-5.2 9.2-9.9 14.4-14.3 1.2-1.1 2.6-2.2 3.9-3.2 1.3-1.1 2.6-2.2 3.9-3.2 2.7-2 5.4-4.1 8.2-6l4.1-3q2.1-1.4 4.1-2.9l4.2-2.8 4.2-2.8c5.6-3.8 11.2-7.5 16.8-11.2 11.3-7.5 22.5-14.9 33.6-22.5 11.2-7.5 22.2-15.2 33.1-23.1l8.2-5.9 4.1-2.9c1.4-1 2.7-2.1 4-3.1l8-6.1 2-1.6 1.9-1.6 3.8-3.2c10.3-8.6 19.9-18 29-27.9 9.1-9.9 17.3-20.5 24.6-31.8 1-1.3 1.8-2.8 2.7-4.2l2.7-4.3 2.4-4.4 1.2-2.2q0.6-1.1 1.2-2.3c0.7-1.5 1.5-3 2.2-4.5l2.1-4.6c1.3-3.1 2.6-6.2 3.6-9.4q0 0 0.1 0 0 0 0 0z"/>
			</g>
			<g id="&lt;Group&gt;">
				<path id="&lt;Path&gt;" class="s5" d="m284 116c0-9.9 8-18 18-18h109.2c10 0 18 8.1 18 18v123c0 10-8 18-18 18h-109.2c-10 0-18-8-18-18z"/>
				<g id="&lt;Group&gt;">
					<path id="&lt;Path&gt;" class="s6" d="m306.8 59.9c0-1.1 0.9-2 2-2h94.9c1.1 0 2 0.9 2 2v124.6c0 1.1-0.9 2-2 2h-94.9c-1.1 0-2-0.9-2-2z"/>
					<path id="&lt;Path&gt;" class="s4" d="m310.5 65.6c0-1.1 0.9-2 2-2h86.9c1.1 0 2 0.9 2 2v124.6c0 1.1-0.9 2-2 2h-86.9c-1.1 0-2-0.9-2-2z"/>
					<g id="&lt;Group&gt;" style="opacity: .5">
						<path id="&lt;Path&gt;" class="s0" d="m316.8 74.4c0-0.5 0.4-1 1-1h52.6c0.6 0 1 0.5 1 1v1.3c0 0.5-0.4 1-1 1h-52.6c-0.6 0-1-0.5-1-1z"/>
						<path id="&lt;Path&gt;" class="s0" d="m317.2 83.3c0-0.6 0.4-1 1-1h52.6c0.6 0 1 0.4 1 1v1.2c0 0.6-0.4 1-1 1h-52.6c-0.6 0-1-0.4-1-1z"/>
						<path id="&lt;Path&gt;" class="s0" d="m317 92.6c0-0.6 0.4-1 1-1h52.6c0.6 0 1 0.4 1 1v1.3c0 0.5-0.4 1-1 1h-52.6c-0.6 0-1-0.5-1-1z"/>
						<path id="&lt;Path&gt;" class="s0" d="m317.9 150.6c0-0.5 0.4-1 1-1h52.6c0.6 0 1 0.5 1 1v1.3c0 0.6-0.4 1-1 1h-52.6c-0.6 0-1-0.4-1-1z"/>
						<path id="&lt;Path&gt;" class="s0" d="m317.9 162.3c0-0.6 0.4-1 1-1h52.6c0.6 0 1 0.4 1 1v1.3c0 0.5-0.4 1-1 1h-52.6c-0.6 0-1-0.5-1-1z"/>
						<path id="&lt;Path&gt;" class="s0" d="m317.4 101.4c0-0.5 0.4-1 1-1h52.6c0.6 0 1 0.5 1 1v1.3c0 0.6-0.4 1-1 1h-52.6c-0.6 0-1-0.4-1-1z"/>
						<path id="&lt;Path&gt;" class="s0" d="m316.8 111.4c0-0.5 0.4-1 1-1h75c0.6 0 1 0.5 1 1v1.3c0 0.6-0.4 1-1 1h-75c-0.6 0-1-0.4-1-1z"/>
						<path id="&lt;Path&gt;" class="s0" d="m317.2 120.7c0-0.6 0.4-1 1-1h52.6c0.6 0 1 0.4 1 1v1.3c0 0.5-0.4 1-1 1h-52.6c-0.6 0-1-0.5-1-1z"/>
						<path id="&lt;Path&gt;" class="s0" d="m317 131.3c0-0.6 0.4-1 1-1h52.6c0.6 0 1 0.4 1 1v1.3c0 0.5-0.4 1-1 1h-52.6c-0.6 0-1-0.5-1-1z"/>
						<path id="&lt;Path&gt;" class="s0" d="m374.6 121.1c0-0.6 0.4-1 1-1h18.4c0.5 0 1 0.4 1 1v1.3c0 0.5-0.5 1-1 1h-18.4c-0.6 0-1-0.5-1-1z"/>
						<path id="&lt;Path&gt;" class="s0" d="m317.9 140.4c0-0.6 0.4-1 1-1h22.3c0.6 0 1 0.4 1 1v1.3c0 0.5-0.4 1-1 1h-22.3c-0.6 0-1-0.5-1-1z"/>
					</g>
				</g>
				<g id="&lt;Group&gt;">
					<g id="&lt;Group&gt;">
						<path id="&lt;Path&gt;" class="s7" d="m470.7 190.3c1.2 49.7 5.1 221.2 3.2 282-0.2 6.4-5.2 11.6-11.5 11.8-31.2 1-145.6 3.6-196.6 1.5-10.6-0.5-19.1-9.3-19.3-20.1-1.1-52.2-3.4-198.9 2.1-266.2 0.7-8 6.9-14.4 14.8-15.2 34-3.5 148.8-12 192.9-9.1 8 0.6 14.2 7.2 14.4 15.3z"/>
						<path id="&lt;Path&gt;" class="s8" d="m450.6 212.3v42.1c0 8.1-5.1 14.6-11.5 14.6h-157.6c-6.3 0-11.4-6.5-11.4-14.6v-42.1c0-8.1 5.1-14.7 11.4-14.7h157.6c6.4 0 11.5 6.6 11.5 14.7z"/>
						<path id="&lt;Path&gt;" class="s9" d="m278.5 210.9c1.4-1.8 3.3-2.8 5.3-2.8l147.5-1c3.9 0 7.2 3.8 7.5 8.8l2.5 41.8c0.2 3.5-4.2 6.3-9.9 6.3l-144.9 0.3c-5.7 0-10.3-2.8-10.3-6.2v-40.3c0-2.6 0.8-5.1 2.3-6.9z"/>
					</g>
					<path id="&lt;Path&gt;" class="s10" d="m281.5 433.5c0 7.2 5.9 13.1 13.1 13.1h15.9c7.2 0 13-5.9 13-13.1 0-7.2-5.8-13-13-13h-15.9c-7.2 0-13.1 5.8-13.1 13z"/>
					<path id="&lt;Path&gt;" class="s11" d="m395.9 433.5c0 7.2 5.8 13.1 13 13.1h15.9c7.2 0 13.1-5.9 13.1-13.1 0-7.2-5.9-13-13.1-13h-15.9c-7.2 0-13 5.8-13 13z"/>
					<path id="&lt;Path&gt;" class="s12" d="m339.1 433.5c0 7.2 5.9 13.1 13.1 13.1h15.9c7.2 0 13-5.9 13-13.1 0-7.2-5.8-13-13-13h-15.9c-7.2 0-13.1 5.8-13.1 13z"/>
					<path id="&lt;Path&gt;" class="s13" d="m412.8 313.1c0-4.5 3.6-8 8-8h10.2c4.4 0 8 3.5 8 8v4.4c0 4.5-3.6 8-8 8h-10.2c-4.4 0-8-3.5-8-8z"/>
					<path id="&lt;Path&gt;" class="s14" d="m412.8 348c0-4.5 3.6-8 8-8h10.2c4.4 0 8 3.5 8 8v4.4c0 4.5-3.6 8-8 8h-10.2c-4.4 0-8-3.5-8-8z"/>
					<path id="&lt;Path&gt;" class="s15" d="m412.8 382.9c0-4.5 3.6-8 8-8h10.2c4.4 0 8 3.5 8 8v4.4c0 4.5-3.6 8-8 8h-10.2c-4.4 0-8-3.5-8-8z"/>
					<path id="&lt;Path&gt;" class="s16" d="m370.3 313.1c0-4.5 3.6-8 8-8h10.2c4.4 0 8 3.5 8 8v4.4c0 4.5-3.6 8-8 8h-10.2c-4.4 0-8-3.5-8-8z"/>
					<path id="&lt;Path&gt;" class="s17" d="m370.3 348c0-4.5 3.6-8 8-8h10.2c4.4 0 8 3.5 8 8v4.4c0 4.5-3.6 8-8 8h-10.2c-4.4 0-8-3.5-8-8z"/>
					<path id="&lt;Path&gt;" class="s18" d="m369.9 382.9c0-4.5 3.6-8 8-8h10.2c4.4 0 8 3.5 8 8v4.4c0 4.5-3.6 8-8 8h-10.2c-4.4 0-8-3.5-8-8z"/>
					<path id="&lt;Path&gt;" class="s19" d="m327.4 313.1c0-4.5 3.6-8 8-8h10.2c4.4 0 8 3.5 8 8v4.4c0 4.5-3.6 8-8 8h-10.2c-4.4 0-8-3.5-8-8z"/>
					<path id="&lt;Path&gt;" class="s20" d="m327.4 348c0-4.5 3.6-8 8-8h10.2c4.4 0 8 3.5 8 8v4.4c0 4.5-3.6 8-8 8h-10.2c-4.4 0-8-3.5-8-8z"/>
					<path id="&lt;Path&gt;" class="s21" d="m327.4 382.9c0-4.5 3.6-8 8-8h10.2c4.4 0 8 3.5 8 8v4.4c0 4.5-3.6 8-8 8h-10.2c-4.4 0-8-3.5-8-8z"/>
					<path id="&lt;Path&gt;" class="s22" d="m280.7 313.1c0-4.5 3.5-8 8-8h10.1c4.5 0 8 3.5 8 8v4.4c0 4.5-3.5 8-8 8h-10.1c-4.5 0-8-3.5-8-8z"/>
					<path id="&lt;Path&gt;" class="s23" d="m280.7 348c0-4.5 3.5-8 8-8h10.1c4.5 0 8 3.5 8 8v4.4c0 4.5-3.5 8-8 8h-10.1c-4.5 0-8-3.5-8-8z"/>
					<path id="&lt;Path&gt;" class="s24" d="m280.7 382.9c0-4.5 3.5-8 8-8h10.1c4.5 0 8 3.5 8 8v4.4c0 4.5-3.5 8-8 8h-10.1c-4.5 0-8-3.5-8-8z"/>
					<path id="&lt;Path&gt;" class="s25" d="m276.2 289.8c0-1.6 1.3-3 3-3h22.4c1.7 0 3 1.4 3 3v2.4c0 1.6-1.3 3-3 3h-22.4c-1.7 0-3-1.4-3-3z"/>
					<path id="&lt;Path&gt;" class="s26" d="m323.6 289.8c0-1.6 1.4-3 3-3h22.5c1.6 0 3 1.4 3 3v2.4c0 1.6-1.4 3-3 3h-22.5c-1.6 0-3-1.4-3-3z"/>
					<path id="&lt;Path&gt;" class="s27" d="m367.3 289.8c0-1.6 1.3-3 3-3h22.4c1.7 0 3 1.4 3 3v2.4c0 1.6-1.3 3-3 3h-22.4c-1.7 0-3-1.4-3-3z"/>
					<path id="&lt;Path&gt;" class="s28" d="m414.7 289.8c0-1.6 1.4-3 3-3h22.5c1.6 0 3 1.4 3 3v2.4c0 1.6-1.4 3-3 3h-22.5c-1.6 0-3-1.4-3-3z"/>
					<g id="&lt;Group&gt;">
						<path id="&lt;Compound Path&gt;" fill-rule="evenodd" class="s0" d="m299.6 247l-1.5-6.4h-6.6l-1.5 6.4h-4.7l6.3-25.5h6.4l6.3 25.5zm-2.3-10.6l-1.4-5.9q-0.1-0.5-0.5-2.7-0.5-2.2-0.6-2.9-0.2 1.5-0.5 3.3-0.4 1.8-1.8 8.2z"/>
						<path id="&lt;Compound Path&gt;" fill-rule="evenodd" class="s0" d="m320.4 229.4q0 4.1-2 6.2-2.1 2.2-5.9 2.2h-1.2v9.2h-4.7v-25.4h6.4q7.4 0 7.4 7.8zm-9.1 4.3h0.9q1.7 0 2.6-1 0.8-0.9 0.8-3.1 0-2-0.7-3-0.8-0.9-2.5-0.9h-1.1z"/>
						<path id="&lt;Compound Path&gt;" fill-rule="evenodd" class="s0" d="m337.5 229.4q0 4.1-2 6.2-2.1 2.2-6 2.2h-1.1v9.2h-4.8v-25.4h6.5q7.4 0 7.4 7.8zm-9.1 4.3h0.9q1.7 0 2.6-1 0.8-0.9 0.8-3.1 0-2-0.8-3-0.8-0.9-2.4-0.9h-1.1z"/>
						<path id="&lt;Compound Path&gt;" fill-rule="evenodd" class="s0" d="m345.4 237.1v9.9h-4.7v-25.4h6.2q3.9 0 5.8 1.8 1.9 1.9 1.9 5.7 0 4.9-3.3 6.8l4.9 11.1h-5.1l-4-9.9zm0-4.1h1.2q1.7 0 2.4-0.9 0.8-0.9 0.8-2.8 0-2-0.8-2.8-0.8-0.8-2.4-0.8h-1.2z"/>
						<path id="&lt;Compound Path&gt;" fill-rule="evenodd" class="s0" d="m376 234.3q0 6.3-2.3 9.7-2.4 3.4-6.8 3.4-4.4 0-6.8-3.4-2.4-3.4-2.4-9.8 0-6.3 2.4-9.7 2.4-3.3 6.8-3.3 4.4 0 6.8 3.4 2.3 3.4 2.3 9.7zm-13.4 0q0 4.3 1.1 6.6 1.1 2.3 3.2 2.3 4.3 0 4.3-8.9 0-8.9-4.3-8.9-2.1 0-3.2 2.2-1.1 2.3-1.1 6.7z"/>
						<path id="&lt;Compound Path&gt;" class="s0" d="m390.7 221.6h4.8l-6 25.4h-6l-6-25.4h4.8l3.3 15.5q0.4 2 0.9 5.7 0.3-3.1 0.9-5.7z"/>
						<path id="&lt;Compound Path&gt;" class="s0" d="m409.2 247h-11.5v-25.4h11.5v4.1h-6.8v6h6.3v4.1h-6.3v7.1h6.8z"/>
						<path id="&lt;Compound Path&gt;" fill-rule="evenodd" class="s0" d="m429.1 234.1q0 6.3-2.6 9.6-2.6 3.3-7.4 3.3h-6.2v-25.4h6.8q4.4 0 6.9 3.3 2.5 3.2 2.5 9.2zm-4.9 0.1q0-8.5-4.7-8.5h-1.9v17.2h1.5q2.6 0 3.9-2.2 1.2-2.2 1.2-6.5z"/>
					</g>
				</g>
			</g>
			<g id="&lt;Group&gt;">
				<path id="&lt;Path&gt;" class="s29" d="m576.2 341.4c-27.3 15.5-50.2 14.6-76 1-1.7-0.9-2.7-2.6-2.6-4.5l0.1-1.1c0.1-3.3 3.5-5.5 6.6-4.3 22.5 9.2 39.3 14.2 67.4 0.3 3.1-1.5 6.7 0.6 7 4.1 0.1 1.8-0.8 3.6-2.5 4.5z"/>
				<path id="&lt;Path&gt;" class="s30" d="m571 354l15.2-21.4c0.4-0.6 0-1.6-0.8-1.6l-25-3.1c-0.9-0.1-1.6 0.8-1.3 1.7 5.7 7.9 9 16 10.1 24.2 0.3 0.8 1.4 0.9 1.8 0.2z"/>
			</g>
			<g id="&lt;Group&gt;">
				<path id="&lt;Path&gt;" class="s31" d="m483.5 155.7c27.5-17 51.1-16.9 78.1-3.9 1.8 0.8 2.9 2.6 2.8 4.6v1.1c0 3.4-3.4 5.8-6.7 4.6-23.4-8.5-40.9-13.1-69.2 2.2-3.1 1.7-7-0.3-7.3-3.9-0.2-1.9 0.7-3.7 2.3-4.7z"/>
				<path id="&lt;Path&gt;" class="s32" d="m488.4 142.5l-14.8 22.6c-0.4 0.7 0 1.6 0.8 1.7l25.9 2.2c0.9 0.1 1.6-0.9 1.2-1.8-6.1-7.9-9.8-16.1-11.3-24.5-0.3-0.8-1.4-0.9-1.8-0.2z"/>
			</g>
			<g id="&lt;Group&gt;">
				<path id="&lt;Path&gt;" class="s33" d="m214.5 288.1c0 0 0.9 1.8-4.8 4.6-3.2 1.6-9.4 4-10.1 10.7-0.3 3.4-2.8 6.2-6.2 6.8-8.5 1.5-21.6 6.1-23.4 20.9-1.4 11.3 4.5 15.5 10.5 16.9 4.5 1 7.5 5.2 6.7 9.7-0.8 4.3 0.6 9.3 8.1 13 16.8 8.5 32.9-21.4 32.9-21.4l2.5-51.8z"/>
				<path id="&lt;Path&gt;" class="s34" d="m179.1 490l-0.6 5.6c-0.1 1.1-0.9 2-2 2.1-1.8 0.2-4.7 0.5-7.5 0.3-1.2-0.1-2.1-1.4-1.7-2.6 0.6-2.2 1.8-5.4 3.6-7.4l6.3-0.1c1.1 0 2 1 1.9 2.1z"/>
				<path id="&lt;Path&gt;" class="s35" d="m226.7 423.3l1.1 6.2c0 0-2.8 35.7-3.2 50 0 2.2 0.6 4.4 1.8 6.3l6.3 9.8-15.7-8.9-0.4-1.8 2.5-3.6-4.1-39.9c-0.2-2.3 0.2-4.7 1.3-6.8l3.1-6.1z"/>
				<path id="&lt;Path&gt;" class="s36" d="m233.8 497l-5 0.1c-0.9 0.1-1.8-0.3-2.4-1.1-1.6-2-4.9-5.8-6.4-5.9-2.1-0.1-1.7 7.2-1.7 7.2l-1.1 0.1-1.7-9.1c-0.4-2.3 0.7-4.6 2.8-5.7 0 0 0.5 3.5 3.1 5 2.6 1.4 10.5 6.8 10.5 6.8 0 0 1-0.1 2.1 0 1.5 0.3 1.4 2.6-0.2 2.6z"/>
				<path id="&lt;Path&gt;" class="s37" d="m205.4 426.7c0 0-19.9 39.5-23 48.5-3.1 9-4.1 16.4-4.2 17.1 0 1.1-1.4 2.2-5.1 2.3-2 0-3-0.7-3.4-1.5-0.5-0.6-0.5-1.4-0.2-2.1 1.2-2.4 4.8-10.2 6.2-13.8 1.6-4.2 4.8-23.2 6.7-29.8 1.8-6.6 3.9-13.8 12.4-20.5 0 0 5.8-5.9 10.6-0.2z"/>
				<path id="&lt;Path&gt;" class="s38" d="m217.2 362.3c4.9-22.6-8.8-35.1-8.8-35.1 6.7-6.7 18-10.6 22.2-11.9 1-0.3 2.1-0.1 2.9 0.6 3.7 2.8 13.4 11.1 12.1 18-1 5-9.9 29.9-9.9 29.9 0 0-8.5 4.2-18.5-1.5z"/>
				<path id="&lt;Path&gt;" class="s39" d="m205.6 373.7c2.1-6.5 11.6-11.4 11.6-11.4 10 5.7 18.5 1.5 18.5 1.5 0 0 2.1 7.4 0.9 14.3-1.2 6.9-8.8 51.4-8.8 51.4-13.2 2.9-33.7-2.1-33.7-2.1 8.2-15.1 9.5-47.1 11.5-53.7z"/>
				<path id="&lt;Path&gt;" class="s40" d="m222.2 300.2l-3.9 19.5c-0.4 1.7 1.1 1.4 2.9 1 2.8-0.6 6.4-1.7 7.6-4q0.2-0.3 0.2-0.7l1.6-13.5c0.1-1.1-0.5-2.1-1.4-2.5l-3.7-1.5c-1.4-0.6-2.9 0.2-3.3 1.7z"/>
				<g id="&lt;Group&gt;">
					<path id="&lt;Path&gt;" class="s41" d="m230.2 282.3c0 0 4.6 3 6.8 10.9 2.1 7.9-1.1 10.8-4.4 10.7-3.3-0.1-8.1-1-12.3-6.6-4.3-5.6 3.8-18.7 9.9-15z"/>
					<path id="&lt;Path&gt;" class="s42" d="m224.4 294c0 0-1.9-11.4 7.6-9.8l1.9 2c0 0 4.6-5.3-0.6-9.2-5.2-3.8-12.3-2.7-16.1 4.6-3.8 7.2-5.1 12.3-1.7 16.7 3.3 4.3 5.7 0.5 5.7 0.5 0 0-3.7-4.6-1.7-6.6 1.5-1.4 4.3 2 4.3 2z"/>
				</g>
				<path id="&lt;Path&gt;" class="s43" d="m208.4 327.2c0 0-4.7 14.2 10.7 31.7 7.4 8.4 25.1 10.7 27.9 2.1l-2.8-3.7c0 0-13.5 1.6-16.8-2.9-3.3-4.6-6.3-14.1-6.3-14.1 0 0-7.8-13.5-12.7-13.1z"/>
				<path id="&lt;Path&gt;" class="s44" d="m246.6 361.9c0 0-4-4.7-4.4-6.9-0.5-2.1-0.7-5.1 3-6.2 3.7-1.2 8.4-1.8 8.4-1.8 0 0 1 2.6-2 3.1l2.2 0.4c0 0 0.8 2.1-1.9 2.2l2.3 0.9c0 0-0.1 2.1-2.2 1.8-2.2-0.2-0.6 4.9-5.4 6.5z"/>
				<path id="&lt;Path&gt;" class="s4" d="m182.5 341.4c-0.3 0-0.6-0.2-0.8-0.3-4-2.5-6.2-7.7-5.3-12.7 0.5-3 1.9-5.6 4-7.3 1.5-1.2 3.3-2 4.9-2.6 2.9-1.2 5.8-2.2 8.8-3q0.3-0.2 0.7-0.3c1.7-0.5 3.5-1 5.1-1.8 2.1-1.1 3.6-2.6 4.2-4.3 0.4-1.1 0.5-2.3 0.6-3.4 0.1-1.4 0.2-2.8 0.9-4.1q0-0.1 0.1 0 0.1 0 0.1 0.1c-0.7 1.2-0.8 2.6-0.9 4-0.1 1.2-0.2 2.4-0.6 3.5-0.7 1.7-2.2 3.3-4.3 4.4-1.6 0.8-3.4 1.3-5.1 1.8q-0.4 0.1-0.8 0.2c-2.9 0.9-5.8 1.9-8.7 3.1-1.7 0.6-3.4 1.4-4.9 2.6-2 1.7-3.4 4.2-3.9 7.2-0.9 4.9 1.3 10 5.2 12.4 0.3 0.2 0.8 0.4 1 0.1q0.1-0.1 0.1 0 0.1 0 0.1 0.1-0.2 0.3-0.5 0.3z"/>
				<path id="&lt;Path&gt;" class="s4" d="m181.4 336.7q-0.1 0-0.1 0c-1.5-2.3-2.4-4.6-2.4-6.8 0-2.6 1.1-5.1 3-6.4q0.1 0 0.2 0 0 0.1 0 0.2c-1.9 1.3-3 3.6-3 6.2 0 2.2 0.8 4.5 2.4 6.6q0 0.1-0.1 0.2 0 0 0 0z"/>
			</g>
			<g id="&lt;Group&gt;">
				<g id="&lt;Group&gt;">
					<g id="&lt;Group&gt;">
						<path id="&lt;Path&gt;" class="s45" d="m734.6 472.8c0 0 1.7 2.7 2.2 10.4 0 0.7-0.5 1.3-1.3 1.3h-13.6c-0.5 0-0.9-0.5-0.7-1 0.8-2.4 3.2-8.1 8.6-11.4z"/>
						<path id="&lt;Path&gt;" class="s46" d="m735.2 467.6l-0.8 6.4c0 0.6-0.5 1-1 1.1-0.8 0.1-1.9 0.1-2.9 0-1-0.2-1.6-1-1.6-2v-6.2z"/>
						<path id="&lt;Path&gt;" class="s47" d="m701 472.1c0 0 2.6 4 2.5 9.6 0 1.3-1.1 2.3-2.4 2.3h-21.1c-1 0-1.4-1.3-0.6-1.8 4-2.8 11.9-8.1 17.5-10.1z"/>
						<path id="&lt;Path&gt;" class="s48" d="m703.1 465.1l-1.6 8c-0.2 0.9-1 1.5-1.9 1.3-0.6-0.2-1.2-0.4-1.9-0.8-0.6-0.4-1-1.2-0.8-1.9l1.7-9.7z"/>
						<path id="&lt;Path&gt;" class="s49" d="m732.2 354.5c0 0 5.7 5 6.8 11.1 1 6-3.1 104.2-3.1 104.2 0 0-5.7 1-8.6-0.8 0 0-3.5-63.8-6.2-78.5 0 0-13.9 66.1-17.7 78 0 0-5.5 0.7-7.3-0.4 0 0 3.7-85.6 8.2-100.8z"/>
						<path id="&lt;Path&gt;" class="s50" d="m721.3 388.4q-0.1 0-0.1 0c-0.3-0.1-0.5-0.4-0.4-0.7l2.4-9.3q0-0.2 0.2-0.3l5.3-3.4c0.2-0.2 0.6-0.1 0.7 0.2 0.2 0.2 0.1 0.6-0.1 0.8l-5.1 3.2-2.3 9.1c-0.1 0.2-0.3 0.4-0.6 0.4z"/>
						<path id="&lt;Path&gt;" class="s51" d="m675.9 297.7c24-2 30.3 3 30.3 3l-11.5 18.2c0 0-23.6-0.5-40.5-13.5 3.1-3.4 5.3-7.2 6.7-10.1 4.4 1.8 9.4 2.9 15 2.4z"/>
						<path id="&lt;Path&gt;" class="s52" d="m638.3 262.5c0.1-0.8 1.1-1 1.4-0.3l3.1 6.6c0.6 1.2 0.8 2.6 0.5 4l-1 3.8c-0.4 1.9 0.1 3.8 1.3 5.2 2.8 3.6 8.8 10 17.3 13.5-1.4 2.9-3.6 6.7-6.7 10.1-6.2-4.8-11.5-11.2-14.4-20-1.4-0.4-2.4-1.7-2.3-3.2z"/>
						<path id="&lt;Path&gt;" class="s53" d="m668 308.3c8.5-9.1 24.6-13.2 33.9-14.9 4.1-0.8 8.1 1.5 9.5 5.4 4.2 11.3 15.6 40.6 17.8 45.6 1.9 4.1 3.7 8.2 5 10.7 0.7 1.5 0 3.3-1.5 4-7.8 3.8-21.9 8.1-27.6 9.8-1.3 0.3-2.5-0.6-2.5-1.9 0-1.1-0.3-2.2-0.9-3.2l-21.7-36.1c-13.5 15-25.3 16.4-34.4 13.1q2.3-7.1 3-14.2c13.4-2.3 19.4-18.3 19.4-18.3z"/>
						<path id="&lt;Path&gt;" class="s54" d="m622.7 321.5l4.4-2.6c7.8 5.4 16.2 8.6 21.5 7.7q-0.7 7.1-3 14.2c-11.9-4.3-22.9-19.3-22.9-19.3z"/>
						<path id="&lt;Path&gt;" class="s55" d="m601.8 322.4c2.8-1.5 10.9-2.8 10.9-2.8 0 0 9.3-5.4 11.9-6.5 2.3-0.9 3.2 2.4 3.5 3.6q0.1 0.4 0.1 0.4l-0.4 2.2-9.4 4.2c-2 0.9-4.2 1.2-6.4 0.9l-10-1.3c-0.2 0-0.3-0.2-0.4-0.3 0-0.2 0.1-0.3 0.2-0.4z"/>
						<path id="&lt;Path&gt;" class="s56" d="m689.1 276.7l7.2 17.5c0 0-8.3 5.7-15 5.2l-3.6-15.8z"/>
						<g id="&lt;Group&gt;">
							<path id="&lt;Path&gt;" class="s57" d="m676.9 264.7c-0.2 0.2-5.2 18.4-5.2 18.4l10.5 2.7 7.3-16.6c0 0-9.8-8.4-12.6-4.5z"/>
							<path id="&lt;Path&gt;" class="s58" d="m685.6 271.8l-3.2 9q-0.1 0.1-0.2 0.3c-0.4 0.6-2.1 2.6-4 0.8-1.8-1.6-3.4-3.1-4.9-3.4-0.7-0.1-1.4 0.3-1.5 1-0.5 1.6-1.5 5.4-1.8 8.8-0.1 0.7 0.4 1.3 1.1 1.4 2 0.4 6.4 1.1 10 0.8 0.5 0 0.9-0.3 1.1-0.7 1-2.2 4.1-8.8 5.2-10.5 1.1-1.6 3.7-1.6 4.8-1.5 0.3 0 0.7-0.1 0.9-0.3 1-0.8 2.8-3 0.3-5.6-0.6-0.5-0.6-1.4 0-1.9 1.1-1 2.3-2.9 0.4-5.1-1.8-2.3-4.3-2-5.8-1.4-0.6 0.2-1.3-0.1-1.6-0.6-0.2-0.3-0.5-0.6-1.1-0.5-0.8 0-1.4-0.6-1.4-1.4 0-1.5-0.5-3.3-3.1-4.1-4.6-1.5-7.4 2.9-7.7 6.2-0.3 3.3 4.8 4.6 7.7 4.4 2.3-0.2 4 2 4.6 3.1 0.3 0.4 0.3 0.8 0.2 1.2z"/>
							<path id="&lt;Path&gt;" class="s59" d="m686.2 282.5c0 0 0.7-5.7 3.1-5.9 2.4-0.3 4.7 1.6 2.3 4.8-2.9 4-5.4 1.1-5.4 1.1z"/>
						</g>
					</g>
				</g>
				<g id="&lt;Group&gt;">
					<path id="&lt;Path&gt;" class="s60" d="m636.8 235.3l0.8 69.6 0.1 10.8c0.1 1.4-1.1 2.6-2.5 2.7l-138.4 4.8c-1.4 0.1-2.6-1-2.6-2.4l-0.6-10.8-3.4-68.7c0-1.4 1.5-4.2 4.6-4.1l135.1-8.2c1.8-0.2 3.5 0.5 4.8 1.7 1.3 1.2 2 2.8 2.1 4.6z"/>
					<path id="&lt;Path&gt;" class="s61" d="m634.2 313.7c0.1 1.3-1 2.4-2.3 2.4l-131.9 4.7c-1.3 0-2.4-1-2.5-2.3l-3.7-74.2c0-1.3 1.4-3.9 4.3-3.8l128.8-7.8c1.7-0.1 3.3 0.5 4.5 1.6 1.3 1.1 2 2.7 2 4.3z"/>
					<path id="&lt;Path&gt;" class="s4" d="m617.1 317.3c-0.2 0-0.3-0.1-0.3-0.3 0-0.2 0.1-0.3 0.3-0.3l14.7-0.5c1.9-0.1 3.6-2 3.5-3.8l-1.6-45.1c0-0.2 0.2-0.3 0.3-0.3 0.2-0.1 0.3 0.1 0.3 0.2l1.6 45.2c0.1 2.1-1.9 4.3-4.1 4.4l-14.7 0.5q0 0 0 0z"/>
					<path id="&lt;Path&gt;" class="s4" d="m494.9 272.5c-0.2 0-0.3-0.2-0.3-0.3l-1-27.1c-0.1-2.9 2.1-5.4 4.8-5.5l11.7-0.5c0.2 0 0.3 0.2 0.3 0.3 0 0.2-0.1 0.3-0.3 0.3l-11.7 0.5c-1.1 0-2.2 0.6-3 1.5-0.8 1-1.2 2.2-1.2 3.4l1 27c0 0.2-0.1 0.4-0.3 0.4q0 0 0 0z"/>
					<g id="&lt;Group&gt;">
						<path id="&lt;Path&gt;" class="s62" d="m528.1 268.9c0-1.4-1.2-2.6-2.6-2.5l-17.1 0.6c-1.4 0.1-2.5 1.2-2.5 2.7l0.5 12.9c0 1.5 1.2 2.6 2.6 2.5l17.1-0.6c1.4 0 2.6-1.2 2.5-2.6z"/>
						<g id="&lt;Group&gt;">
							<path id="&lt;Compound Path&gt;" fill-rule="evenodd" class="s63" d="m514 279.4q-0.4 0-0.7-0.3-0.3-0.3-0.3-0.8l-0.2-4.2q0-0.5 0.3-0.8 0.3-0.3 0.7-0.4l4.9-0.1c0.6 0 1.1 0.4 1.1 1l0.2 4.3c0 0.6-0.5 1.1-1 1.1l-4.9 0.2q0 0-0.1 0zm4.8-6q0 0-0.1 0l-4.8 0.1q-0.2 0.1-0.4 0.2-0.1 0.1-0.1 0.3l0.2 4.3q0 0.2 0.1 0.4 0.2 0.1 0.4 0.1l4.8-0.2c0.3 0 0.5-0.2 0.5-0.5l-0.2-4.3c0-0.2-0.2-0.4-0.4-0.4z"/>
							<g id="&lt;Group&gt;">
								<path id="&lt;Path&gt;" class="s0" d="m506.1 275.6c-0.1 0-0.3-0.2-0.3-0.3 0-0.2 0.2-0.3 0.3-0.3l7-0.3c0.2 0 0.3 0.1 0.3 0.3 0 0.2-0.1 0.3-0.2 0.3l-7.1 0.3q0 0 0 0z"/>
								<path id="&lt;Path&gt;" class="s0" d="m506.2 277.3c-0.2 0-0.3-0.1-0.3-0.3 0-0.1 0.1-0.3 0.3-0.3l7-0.2c0.2 0 0.3 0.1 0.3 0.3 0 0.1-0.1 0.3-0.3 0.3l-7 0.2q0 0 0 0z"/>
							</g>
							<g id="&lt;Group&gt;">
								<path id="&lt;Path&gt;" class="s0" d="m520.7 275.1c-0.1 0-0.2-0.2-0.3-0.3 0-0.2 0.2-0.3 0.3-0.3l7.6-0.3c0.2 0 0.3 0.1 0.3 0.3 0 0.1-0.1 0.3-0.2 0.3l-7.6 0.3q-0.1 0-0.1 0z"/>
								<path id="&lt;Path&gt;" class="s0" d="m520.8 276.8c-0.2 0-0.3-0.1-0.3-0.3 0-0.1 0.1-0.3 0.3-0.3l7.6-0.3c0.2 0 0.3 0.2 0.3 0.3 0 0.2-0.1 0.3-0.3 0.3l-7.6 0.3q0 0 0 0z"/>
							</g>
							<g id="&lt;Group&gt;">
								<g id="&lt;Group&gt;">
									<path id="&lt;Path&gt;" class="s0" d="m514.7 273.5c-0.2 0-0.3 0-0.3-0.2l-1.7-6.3c-0.1-0.1 0-0.3 0.2-0.4 0.1 0 0.3 0.1 0.3 0.3l1.8 6.3c0 0.1-0.1 0.3-0.2 0.3q-0.1 0-0.1 0z"/>
									<path id="&lt;Path&gt;" class="s0" d="m518.8 273.4q-0.1 0-0.1 0c-0.2 0-0.3-0.2-0.2-0.4l1.3-6.4c0-0.1 0.2-0.2 0.4-0.2 0.1 0 0.2 0.2 0.2 0.3l-1.4 6.5c0 0.1-0.1 0.2-0.2 0.2z"/>
								</g>
								<g id="&lt;Group&gt;">
									<path id="&lt;Path&gt;" class="s0" d="m513.6 285.5q0 0-0.1 0c-0.1-0.1-0.2-0.2-0.2-0.4l1.3-6.4c0-0.2 0.2-0.3 0.3-0.2 0.2 0 0.3 0.2 0.3 0.3l-1.3 6.4c0 0.2-0.2 0.3-0.3 0.3z"/>
									<path id="&lt;Path&gt;" class="s0" d="m520.7 285.2c-0.1 0-0.2-0.1-0.3-0.2l-1.7-6.3c-0.1-0.2 0-0.3 0.2-0.4 0.1 0 0.3 0.1 0.3 0.2l1.8 6.3c0.1 0.2 0 0.4-0.2 0.4q0 0-0.1 0z"/>
								</g>
							</g>
						</g>
					</g>
					<path id="&lt;Path&gt;" class="s2" d="m527.5 249.8c0 1.7-1.3 3.1-3 3.2l-19 0.6c-1.7 0.1-3.1-1.2-3.2-2.9v-0.3c0-1.7 1.3-3.1 3-3.2l19-0.6c1.7-0.1 3.1 1.2 3.2 2.9z"/>
					<g id="&lt;Group&gt;">
						<path id="&lt;Path&gt;" class="s2" d="m530.8 295.5c0.1 1.6-1.2 2.9-2.8 3l-21 0.7c-1.6 0.1-3-1.2-3.1-2.8 0-1.6 1.2-3 2.8-3l21.1-0.8c1.6 0 3 1.2 3 2.8z"/>
						<path id="&lt;Path&gt;" class="s2" d="m561.2 294.4c0.1 1.6-1.2 3-2.8 3l-21 0.8c-1.6 0-3-1.2-3-2.8l-0.1-0.1c0-1.6 1.2-2.9 2.8-3l21.1-0.7c1.6-0.1 3 1.2 3 2.8z"/>
						<path id="&lt;Path&gt;" class="s2" d="m591.6 293.3c0.1 1.6-1.2 3-2.8 3l-21 0.8c-1.6 0-3-1.2-3-2.8v-0.1c-0.1-1.6 1.1-2.9 2.7-3l21.1-0.7c1.6-0.1 3 1.2 3 2.8z"/>
						<path id="&lt;Path&gt;" class="s2" d="m622.6 292.2c0.1 1.6-1.2 3-2.8 3l-21.1 0.8c-1.6 0-2.9-1.2-3-2.8v-0.1c0-1.6 1.2-2.9 2.8-3l21.1-0.7c1.6-0.1 3 1.2 3 2.8z"/>
					</g>
					<g id="&lt;Group&gt;">
						<path id="&lt;Path&gt;" class="s2" d="m551.2 307.6c0 1.3-1 2.4-2.3 2.4l-39.2 1.4c-1.3 0.1-2.3-0.9-2.4-2.2v-0.1c0-1.2 1-2.3 2.2-2.4l39.3-1.3c1.3-0.1 2.3 0.9 2.4 2.2z"/>
						<path id="&lt;Path&gt;" class="s2" d="m619.5 304.1c0.1 1.2-0.9 2.3-2.2 2.3l-17 0.6c-1.3 0.1-2.4-0.9-2.4-2.2 0-1.3 1-2.4 2.2-2.4l17-0.6c1.3-0.1 2.4 0.9 2.4 2.2z"/>
					</g>
				</g>
				<g id="&lt;Group&gt;">
					<g id="&lt;Group&gt;">
						<path id="&lt;Path&gt;" class="s64" d="m553.3 206.4c-8 0-14.4-6.4-14.4-14.4 0-7.9 6.4-14.3 14.4-14.3 7.9 0 14.3 6.4 14.3 14.3 0 8-6.4 14.4-14.3 14.4z"/>
						<path id="&lt;Path&gt;" class="s65" d="m553.3 205.9c-7.7 0-13.9-6.2-13.9-13.9 0-7.6 6.2-13.8 13.9-13.8 7.6 0 13.8 6.2 13.8 13.8 0 7.7-6.2 13.9-13.8 13.9z"/>
						<path id="&lt;Path&gt;" class="s66" d="m541.8 186.8q-0.1 0-0.2 0c-0.3-0.2-0.4-0.5-0.2-0.8 2.2-4.5 6.8-7.3 11.9-7.3q1.2 0 2.4 0.2c0.3 0.1 0.4 0.4 0.4 0.7-0.1 0.3-0.3 0.5-0.6 0.4q-1.1-0.2-2.2-0.2c-4.7 0-8.9 2.6-11 6.7-0.1 0.2-0.3 0.3-0.5 0.3z"/>
						<path id="&lt;Path&gt;" class="s66" d="m553.6 204.1c-6.5 0-11.8-5.3-11.8-11.8 0-6.4 5.3-11.7 11.8-11.7 6.4 0 11.7 5.3 11.7 11.7 0 6.5-5.3 11.8-11.7 11.8z"/>
						<g id="&lt;Group&gt;">
							<path id="&lt;Compound Path&gt;" class="s67" d="m552.4 201v-1.2c-1.3-0.1-2.6-0.4-3.6-0.8-0.3-0.1-0.5-0.5-0.4-0.9l0.4-1.2c0.1-0.4 0.5-0.6 1-0.4 0.9 0.3 2 0.6 3.3 0.6 1.2 0 2.2-0.4 2.2-1.3 0-0.8-0.7-1.3-2.5-1.7-2.6-0.7-4.4-1.8-4.4-4.1 0-2 1.5-3.5 4.1-3.9v-1.3c0-0.4 0.3-0.7 0.7-0.7h0.7c0.5 0 0.8 0.3 0.8 0.7v1.1c1.2 0.1 2.1 0.3 2.8 0.5 0.4 0.2 0.6 0.6 0.5 0.9l-0.3 1.1c-0.1 0.5-0.6 0.7-1 0.5-0.6-0.2-1.6-0.5-2.8-0.5-1.5 0-1.9 0.7-1.9 1.2 0 0.7 0.9 1.2 2.9 1.8 2.8 0.8 4 2 4 4.1 0 2-1.5 3.7-4.3 4.1v1.4c0 0.5-0.3 0.8-0.7 0.8h-0.7c-0.5 0-0.8-0.3-0.8-0.8z"/>
						</g>
					</g>
					<g id="&lt;Group&gt;">
						<path id="&lt;Path&gt;" class="s68" d="m594 200c-13.8 0-24.9-11.2-24.9-24.9 0-13.8 11.1-25 24.9-25 13.8 0 25 11.2 25 25 0 13.7-11.2 24.9-25 24.9z"/>
						<path id="&lt;Path&gt;" class="s69" d="m594 199.2c-13.3 0-24.1-10.8-24.1-24.1 0-13.4 10.8-24.1 24.1-24.1 13.4 0 24.1 10.7 24.1 24.1 0 13.3-10.7 24.1-24.1 24.1z"/>
						<path id="&lt;Path&gt;" class="s66" d="m574.2 165.6q-0.2 0-0.3-0.1c-0.3-0.1-0.4-0.4-0.2-0.7 3.9-7.7 11.7-12.5 20.3-12.5q2.1 0 4.1 0.4c0.3 0 0.5 0.3 0.5 0.6-0.1 0.3-0.4 0.5-0.7 0.4q-1.9-0.3-3.9-0.3c-8.2 0-15.6 4.5-19.4 11.9-0.1 0.2-0.3 0.3-0.4 0.3z"/>
						<path id="&lt;Path&gt;" class="s66" d="m594.6 196c-11.3 0-20.4-9.1-20.4-20.4 0-11.3 9.1-20.4 20.4-20.4 11.2 0 20.4 9.1 20.4 20.4 0 11.3-9.2 20.4-20.4 20.4z"/>
						<g id="&lt;Group&gt;">
							<path id="&lt;Compound Path&gt;" class="s70" d="m592.6 190.7v-2.2c-2.4-0.1-4.6-0.6-6.3-1.3-0.6-0.3-0.9-0.9-0.7-1.5l0.6-2.1c0.2-0.8 1-1.2 1.7-0.8 1.6 0.6 3.6 1.2 5.8 1.2 2.2 0 3.9-0.8 3.9-2.3 0-1.4-1.3-2.3-4.4-3.1-4.4-1.2-7.6-3.1-7.6-7 0-3.5 2.6-6.2 7-6.9v-2.2c0-0.8 0.6-1.3 1.3-1.3h1.3c0.7 0 1.3 0.5 1.3 1.3v1.9c2.2 0.1 3.7 0.5 5 0.9 0.6 0.3 0.9 0.9 0.8 1.6l-0.6 1.9c-0.2 0.7-0.9 1.1-1.7 0.9-1.1-0.5-2.7-0.9-4.8-0.9-2.6 0-3.4 1.1-3.4 2.1 0 1.2 1.6 2 5 3.1 4.9 1.4 7 3.5 7 7.1 0 3.4-2.5 6.4-7.4 7.2v2.4c0 0.8-0.5 1.3-1.3 1.3h-1.3c-0.7 0-1.2-0.5-1.2-1.3z"/>
						</g>
					</g>
					<g id="&lt;Group&gt;">
						<path id="&lt;Path&gt;" class="s71" d="m611.2 256.4c-14.2 0-25.6-11.5-25.6-25.7 0-14.2 11.4-25.6 25.6-25.6 14.2 0 25.7 11.4 25.7 25.6 0 14.2-11.5 25.7-25.7 25.7z"/>
						<path id="&lt;Path&gt;" class="s72" d="m611.2 255.5c-13.7 0-24.8-11.1-24.8-24.8 0-13.7 11.1-24.8 24.8-24.8 13.7 0 24.8 11.1 24.8 24.8 0 13.7-11.1 24.8-24.8 24.8z"/>
						<path id="&lt;Path&gt;" class="s66" d="m590.8 221q-0.2 0-0.3-0.1c-0.2-0.1-0.3-0.5-0.2-0.7 4-8 12-12.9 20.9-12.9q2.2 0 4.3 0.4c0.2 0 0.4 0.3 0.4 0.6-0.1 0.3-0.3 0.5-0.6 0.4q-2-0.3-4.1-0.3c-8.5 0-16.1 4.7-19.9 12.3-0.1 0.2-0.3 0.3-0.5 0.3z"/>
						<path id="&lt;Path&gt;" class="s66" d="m611.8 252.2c-11.6 0-21-9.3-21-20.9 0-11.6 9.4-21 21-21 11.6 0 21 9.4 21 21 0 11.6-9.4 20.9-21 20.9z"/>
						<g id="&lt;Group&gt;">
							<path id="&lt;Compound Path&gt;" class="s73" d="m609.7 246.9v-2.3c-2.4-0.1-4.7-0.7-6.4-1.4-0.6-0.3-0.9-0.9-0.7-1.6l0.5-2.1c0.3-0.8 1.1-1.2 1.9-0.9 1.6 0.7 3.7 1.3 5.9 1.3 2.3 0 4-0.8 4-2.4 0-1.4-1.3-2.3-4.5-3.1-4.6-1.3-7.8-3.3-7.8-7.3 0-3.6 2.6-6.3 7.2-7.1v-2.3c0-0.7 0.6-1.3 1.3-1.3h1.4c0.7 0 1.3 0.6 1.3 1.3v2.1c2.2 0.1 3.8 0.5 5.1 0.9 0.6 0.2 1 0.9 0.8 1.6l-0.5 2c-0.2 0.7-1.1 1.1-1.8 0.9-1.2-0.5-2.8-0.9-5-0.9-2.7 0-3.5 1.1-3.5 2.1 0 1.2 1.7 2.1 5.2 3.2 5 1.5 7.1 3.6 7.1 7.4 0 3.4-2.5 6.5-7.5 7.3v2.6c0 0.7-0.6 1.3-1.3 1.3h-1.4c-0.7 0-1.3-0.6-1.3-1.3z"/>
						</g>
					</g>
					<g id="&lt;Group&gt;">
						<path id="&lt;Path&gt;" class="s74" d="m644.1 214.6c-10.4 0-18.8-8.4-18.8-18.8 0-10.4 8.4-18.8 18.8-18.8 10.4 0 18.8 8.4 18.8 18.8 0 10.4-8.4 18.8-18.8 18.8z"/>
						<path id="&lt;Path&gt;" class="s75" d="m644.1 214c-10 0-18.1-8.2-18.1-18.2 0-10 8.1-18.2 18.1-18.2 10.1 0 18.2 8.2 18.2 18.2 0 10-8.1 18.2-18.2 18.2z"/>
						<path id="&lt;Path&gt;" class="s66" d="m629.2 188.8q-0.2 0-0.3-0.1c-0.3-0.1-0.4-0.4-0.2-0.7 2.9-5.9 8.9-9.5 15.4-9.5q1.6 0 3.2 0.3c0.3 0 0.4 0.3 0.4 0.6-0.1 0.3-0.3 0.5-0.6 0.4q-1.5-0.2-3-0.2c-6.1 0-11.7 3.4-14.5 8.9-0.1 0.2-0.3 0.3-0.4 0.3z"/>
						<path id="&lt;Path&gt;" class="s66" d="m644.5 211.6c-8.5 0-15.3-6.9-15.3-15.4 0-8.5 6.8-15.4 15.3-15.4 8.5 0 15.4 6.9 15.4 15.4 0 8.5-6.9 15.4-15.4 15.4z"/>
						<g id="&lt;Group&gt;">
							<path id="&lt;Compound Path&gt;" class="s76" d="m643 207.6v-1.7c-1.7 0-3.4-0.4-4.7-1-0.4-0.2-0.6-0.7-0.5-1.1l0.4-1.6c0.2-0.5 0.8-0.8 1.3-0.6 1.3 0.5 2.8 0.9 4.4 0.9 1.7 0 2.9-0.6 2.9-1.7 0-1.1-1-1.7-3.3-2.3-3.3-1-5.7-2.4-5.7-5.3 0-2.7 1.9-4.7 5.3-5.2v-1.7c0-0.6 0.4-1 1-1h0.9c0.6 0 1 0.4 1 1v1.5c1.6 0.1 2.8 0.3 3.7 0.7 0.5 0.1 0.8 0.6 0.6 1.1l-0.3 1.5c-0.2 0.5-0.8 0.8-1.3 0.6-0.9-0.3-2.1-0.6-3.7-0.6-2 0-2.5 0.8-2.5 1.5 0 0.9 1.1 1.6 3.7 2.4 3.7 1.1 5.3 2.6 5.3 5.4 0 2.5-1.9 4.8-5.5 5.3v1.9c0 0.6-0.5 1-1 1h-1c-0.5 0-1-0.4-1-1z"/>
						</g>
					</g>
				</g>
			</g>
			<g id="&lt;Group&gt;">
				<g id="&lt;Group&gt;">
					<path id="&lt;Path&gt;" class="s77" d="m610.6 375c-0.4 0-0.8-0.3-0.8-0.8 0-0.1-0.7-16-7.6-21.7-1.9-1.6-4.2-2.2-6.9-1.8-13.4 2.1-13 23.2-12.9 23.5 0 0.4-0.4 0.8-0.8 0.8-0.5 0-0.9-0.3-0.9-0.8 0-0.2-0.1-5.7 1.5-11.5 2.2-7.9 6.7-12.6 12.9-13.6 3.1-0.5 5.8 0.3 8.2 2.2 3.1 2.6 5.4 7.2 6.9 13.8 1 4.8 1.2 8.9 1.2 9.1 0 0.4-0.3 0.8-0.8 0.8q0 0 0 0z"/>
					<path id="&lt;Path&gt;" class="s78" d="m554.5 443.8l11.1-74.7 41.3-0.6 13.4 79.4h-62.2c-2.2 0-3.9-1.9-3.6-4.1z"/>
					<path id="&lt;Path&gt;" class="s79" d="m615 369.1l-8.1-0.6 13.4 79.4h8c1.6 0 2.8-1.5 2.4-3z"/>
					<path id="&lt;Path&gt;" class="s80" d="m601.7 374.8c-0.4 0-0.8-0.3-0.8-0.8 0-0.1-0.7-16-7.5-21.6-2-1.7-4.3-2.3-6.9-1.9-13.5 2.1-13 23.3-13 23.5 0 0.4-0.4 0.8-0.8 0.8-0.5 0-0.8-0.3-0.9-0.8 0-0.2-0.1-5.7 1.5-11.5 2.2-7.9 6.7-12.6 12.9-13.6 3.1-0.4 5.9 0.3 8.2 2.2 3.1 2.6 5.4 7.3 6.9 13.8 1.1 4.9 1.2 8.9 1.2 9.1 0 0.4-0.3 0.8-0.7 0.8q-0.1 0-0.1 0z"/>
				</g>
				<g id="&lt;Group&gt;">
					<g id="&lt;Group&gt;">
						<g id="&lt;Group&gt;">
							<g id="&lt;Group&gt;">
								<g id="&lt;Group&gt;">
									<path id="&lt;Compound Path&gt;" fill-rule="evenodd" class="s6" d="m642.6 403.2l5.5-20.5 16.2-8.8 2.2 4-14.5 7.8-17.3 63.2-0.5 1.8h-70.5c-6.9 0-13.2-3.3-17-9l-3.2-4.1c-3.4-5.3-5.7-11.3-5.7-17.6v-16.8zm-99.8 16.8c0 5.4 1.9 10.6 4.8 15.1l2.9 4.7c2.9 4.5 7.9 7.6 13.2 7.6h67l3.7-13.6 6.9-25.6h-98.5z"/>
								</g>
								<g id="&lt;Group&gt;">
									<path id="&lt;Path&gt;" class="s6" d="m547.5 473.7c0 1.2 1 2.5 2.3 2.5h82.6c1.3 0 2.2-1.8 2.2-3v-39c0-0.4 0-0.4-0.2-0.7l-3.7 13.9h-1.1v23.8h-79.8c-1.3 0-2.3 1.2-2.3 2.5z"/>
								</g>
							</g>
							<g id="&lt;Group&gt;">
								<path id="&lt;Path&gt;" class="s6" d="m590.4 405.5h3v42.4h-3z"/>
								<g id="&lt;Group&gt;">
									<path id="&lt;Path&gt;" class="s6" d="m617 405.5h3.1v42.4h-3.1z"/>
									<path id="&lt;Path&gt;" class="s6" d="m564.4 405.5h3v42.4h-3z"/>
								</g>
							</g>
							<g id="&lt;Group&gt;">
								<path id="&lt;Path&gt;" class="s6" d="m542 418h98.2v2.7h-98.2z"/>
								<path id="&lt;Path&gt;" class="s6" d="m544.5 432.8h91.4v2.7h-91.4z"/>
							</g>
						</g>
						<path id="&lt;Compound Path&gt;" fill-rule="evenodd" class="s6" d="m621.9 498.8c-5.4 0-9.8-4.4-9.8-9.8 0-5.4 4.4-9.7 9.8-9.7 5.4 0 9.7 4.3 9.7 9.7 0 5.4-4.3 9.8-9.7 9.8zm5.8-9.8c0-3.2-2.6-5.9-5.8-5.9-3.3 0-5.9 2.7-5.9 5.9 0 3.3 2.6 5.9 5.9 5.9 3.2 0 5.8-2.6 5.8-5.9z"/>
						<path id="&lt;Compound Path&gt;" fill-rule="evenodd" class="s6" d="m561.3 498.8c-5.4 0-9.8-4.4-9.8-9.8 0-5.4 4.4-9.7 9.8-9.7 5.4 0 9.7 4.3 9.7 9.7 0 5.4-4.3 9.8-9.7 9.8zm5.9-9.8c0-3.2-2.7-5.9-5.9-5.9-3.3 0-5.9 2.7-5.9 5.9 0 3.3 2.6 5.9 5.9 5.9 3.2 0 5.9-2.6 5.9-5.9z"/>
					</g>
					<path id="&lt;Path&gt;" class="s6" d="m654.3 377.9c0 2.5 2 4.5 4.6 4.5h15.2c2.5 0 4.6-2 4.6-4.5 0-2.6-2.1-4.6-4.6-4.6h-15.2c-2.6 0-4.6 2-4.6 4.6z"/>
				</g>
			</g>
		</g>
	</g>
</svg>